name C:\Users\antoi\Documents\MyRepositories\upper-imu-dc\Results\main_tracking\Case_70\ABD01_linearAccelerations_groundFrame.mot
datacolumns 4
datarows 141
range 8.06000000 9.46000000
endheader 
time	radius_imu_x	radius_imu_y	radius_imu_z	
          8.06000000	         -1.43854011	         10.29093694	         -1.11772595	
          8.07000000	         -1.36050369	         10.33726384	         -1.11556735	
          8.08000000	         -1.26966139	         10.37494995	         -1.11071842	
          8.09000000	         -1.16836867	         10.40496480	         -1.10371221	
          8.10000000	         -1.05900224	         10.42805537	         -1.09491172	
          8.11000000	         -0.94387413	         10.44470830	         -1.08451562	
          8.12000000	         -0.82507864	         10.45515580	         -1.07260589	
          8.13000000	         -0.70435945	         10.45938122	         -1.05919318	
          8.14000000	         -0.58305017	         10.45716462	         -1.04426306	
          8.15000000	         -0.46211868	         10.44814375	         -1.02779952	
          8.16000000	         -0.34218213	         10.43186762	         -1.00979347	
          8.17000000	         -0.22361053	         10.40785495	         -0.99024578	
          8.18000000	         -0.10671493	         10.37571309	         -0.96918757	
          8.19000000	          0.00815428	         10.33529400	         -0.94672461	
          8.20000000	          0.12044346	         10.28677448	         -0.92306149	
          8.21000000	          0.22920163	         10.23069341	         -0.89850846	
          8.22000000	          0.33312368	         10.16787351	         -0.87346436	
          8.23000000	          0.43081661	         10.09931189	         -0.84839209	
          8.24000000	          0.52083817	         10.02606886	         -0.82378210	
          8.25000000	          0.60194939	          9.94919260	         -0.80013432	
          8.26000000	          0.67326350	          9.86965307	         -0.77794888	
          8.27000000	          0.73436401	          9.78838826	         -0.75774441	
          8.28000000	          0.78529986	          9.70637832	         -0.74007368	
          8.29000000	          0.82646044	          9.62474473	         -0.72551808	
          8.30000000	          0.85840243	          9.54478256	         -0.71464772	
          8.31000000	          0.88166094	          9.46792329	         -0.70796054	
          8.32000000	          0.89664729	          9.39562812	         -0.70582261	
          8.33000000	          0.90361687	          9.32928764	         -0.70842960	
          8.34000000	          0.90254553	          9.27019884	         -0.71579262	
          8.35000000	          0.89339423	          9.21926311	         -0.72773920	
          8.36000000	          0.87611913	          9.17713166	         -0.74393574	
          8.37000000	          0.85056078	          9.14438936	         -0.76389940	
          8.38000000	          0.81668722	          9.12159683	         -0.78700834	
          8.39000000	          0.77447407	          9.10926170	         -0.81253245	
          8.40000000	          0.72400549	          9.10786458	         -0.83967593	
          8.41000000	          0.66543710	          9.11779390	         -0.86762282	
          8.42000000	          0.59899884	          9.13919106	         -0.89558144	
          8.43000000	          0.52502581	          9.17184688	         -0.92281604	
          8.44000000	          0.44406793	          9.21502804	         -0.94867693	
          8.45000000	          0.35693449	          9.26746762	         -0.97262004	
          8.46000000	          0.26474970	          9.32745309	         -0.99422187	
          8.47000000	          0.16901547	          9.39297738	         -1.01319100	
          8.48000000	          0.07153616	          9.46194786	         -1.02936693	
          8.49000000	         -0.02555972	          9.53237660	         -1.04269881	
          8.50000000	         -0.11990211	          9.60250990	         -1.05321184	
          8.51000000	         -0.20896706	          9.67095342	         -1.06095713	
          8.52000000	         -0.29021894	          9.73673583	         -1.06596868	
          8.53000000	         -0.36122967	          9.79932779	         -1.06823623	
          8.54000000	         -0.41983819	          9.85865164	         -1.06769366	
          8.55000000	         -0.46428069	          9.91501148	         -1.06423439	
          8.56000000	         -0.49322405	          9.96892698	         -1.05775377	
          8.57000000	         -0.50595739	         10.02091480	         -1.04821223	
          8.58000000	         -0.50244650	         10.07124091	         -1.03570693	
          8.59000000	         -0.48325813	         10.11978177	         -1.02051522	
          8.60000000	         -0.44950122	         10.16602404	         -1.00309835	
          8.61000000	         -0.40271981	         10.20924089	         -0.98404340	
          8.62000000	         -0.34473649	         10.24875712	         -0.96396654	
          8.63000000	         -0.27752908	         10.28420123	         -0.94340763	
          8.64000000	         -0.20318549	         10.31565958	         -0.92273510	
          8.65000000	         -0.12393510	         10.34370464	         -0.90206544	
          8.66000000	         -0.04219755	         10.36931410	         -0.88120474	
          8.67000000	          0.03941627	         10.39371501	         -0.85963324	
          8.68000000	          0.11818585	         10.41819300	         -0.83655610	
          8.69000000	          0.19144219	         10.44390341	         -0.81103070	
          8.70000000	          0.25677895	         10.47170988	         -0.78215890	
          8.71000000	          0.31227287	         10.50206730	         -0.74930514	
          8.72000000	          0.35664758	         10.53495371	         -0.71228056	
          8.73000000	          0.38932077	         10.56986411	         -0.67142978	
          8.74000000	          0.41034351	         10.60589721	         -0.62758510	
          8.75000000	          0.42029495	         10.64192496	         -0.58191208	
          8.76000000	          0.42016595	         10.67677981	         -0.53571598	
          8.77000000	          0.41121140	         10.70942136	         -0.49026163	
          8.78000000	          0.39478013	         10.73902304	         -0.44666820	
          8.79000000	          0.37211786	         10.76490588	         -0.40595948	
          8.80000000	          0.34439601	         10.78638711	         -0.36921430	
          8.81000000	          0.31314554	         10.80406023	         -0.33661357	
          8.82000000	          0.27890244	         10.81654191	         -0.30993404	
          8.83000000	          0.24226169	         10.82337742	         -0.29032569	
          8.84000000	          0.20378381	         10.82455309	         -0.27848530	
          8.85000000	          0.16390218	         10.82046886	         -0.27450399	
          8.86000000	          0.12399173	         10.81169479	         -0.27781263	
          8.87000000	          0.08387705	         10.79985848	         -0.28667018	
          8.88000000	          0.04414352	         10.78654264	         -0.29879873	
          8.89000000	          0.00555850	         10.77314275	         -0.31170607	
          8.90000000	         -0.03112548	         10.76060361	         -0.32311945	
          8.91000000	         -0.06502291	         10.74928638	         -0.33134816	
          8.92000000	         -0.09499483	         10.73905976	         -0.33542990	
          8.93000000	         -0.11963293	         10.72951093	         -0.33507694	
          8.94000000	         -0.13741650	         10.72018547	         -0.33046920	
          8.95000000	         -0.14683592	         10.71078548	         -0.32195627	
          8.96000000	         -0.14637587	         10.70163149	         -0.30933334	
          8.97000000	         -0.13557202	         10.69288603	         -0.29263460	
          8.98000000	         -0.11456645	         10.68476560	         -0.27173858	
          8.99000000	         -0.08388651	         10.67737309	         -0.24653895	
          9.00000000	         -0.04472726	         10.67181901	         -0.21570259	
          9.01000000	          0.00124877	         10.66824049	         -0.17904967	
          9.02000000	          0.05196444	         10.66687118	         -0.13642638	
          9.03000000	          0.10533922	         10.66755492	         -0.08829651	
          9.04000000	          0.15941832	         10.66968460	         -0.03585533	
          9.05000000	          0.21212144	         10.67322625	          0.02030551	
          9.06000000	          0.26154220	         10.67816797	          0.07965810	
          9.07000000	          0.30610836	         10.68435645	          0.14157412	
          9.08000000	          0.34461657	         10.69154575	          0.20537616	
          9.09000000	          0.37613867	         10.69966787	          0.27068312	
          9.10000000	          0.40009138	         10.70871774	          0.33724452	
          9.11000000	          0.41630462	         10.71862403	          0.40472854	
          9.12000000	          0.42498788	         10.72921403	          0.47265155	
          9.13000000	          0.42663151	         10.74016780	          0.54034893	
          9.14000000	          0.42186256	         10.75099655	          0.60703493	
          9.15000000	          0.41130401	         10.76106019	          0.67192160	
          9.16000000	          0.39551331	         10.76963027	          0.73435972	
          9.17000000	          0.37503531	         10.77596337	          0.79392459	
          9.18000000	          0.35049651	         10.77937565	          0.85042865	
          9.19000000	          0.32266117	         10.77929524	          0.90383505	
          9.20000000	          0.29241374	         10.77529790	          0.95412489	
          9.21000000	          0.26067611	         10.76711679	          1.00115947	
          9.22000000	          0.22829571	         10.75462524	          1.04457717	
          9.23000000	          0.19594823	         10.73780355	          1.08375004	
          9.24000000	          0.16408414	         10.71671309	          1.11782075	
          9.25000000	          0.13290308	         10.69152940	          1.14587920	
          9.26000000	          0.10238511	         10.66258731	          1.16715326	
          9.27000000	          0.07239305	         10.63039328	          1.18111358	
          9.28000000	          0.04276887	         10.59565890	          1.18764116	
          9.29000000	          0.01343213	         10.55929273	          1.18719767	
          9.30000000	         -0.01556057	         10.52233959	          1.18092897	
          9.31000000	         -0.04402740	         10.48589783	          1.17061876	
          9.32000000	         -0.07167152	         10.45101409	          1.15841858	
          9.33000000	         -0.09804215	         10.41856424	          1.14644350	
          9.34000000	         -0.12249755	         10.38916783	          1.13644266	
          9.35000000	         -0.14420921	         10.36313432	          1.12957117	
          9.36000000	         -0.16226522	         10.34046045	          1.12627482	
          9.37000000	         -0.17586061	         10.32087680	          1.12629286	
          9.38000000	         -0.18454197	         10.30391223	          1.12872909	
          9.39000000	         -0.18833294	         10.28898524	          1.13226428	
          9.40000000	         -0.18780320	         10.27551011	          1.13545181	
          9.41000000	         -0.18388004	         10.26283062	          1.13664129	
          9.42000000	         -0.17784088	         10.25041584	          1.13451803	
          9.43000000	         -0.17115402	         10.23779943	          1.12800420	
          9.44000000	         -0.16522625	         10.22448553	          1.11606361	
          9.45000000	         -0.16128369	         10.21007957	          1.09803011	
          9.46000000	         -0.16013530	         10.19424841	          1.07346448	
